<svg width="224" height="40" viewBox="0 0 224 40" fill="none" xmlns="http://www.w3.org/2000/svg">
<path d="M52.2617 22.2275H15.2432C14.0412 22.2275 13.0655 23.2185 13.0654 24.4492V40H0V24.4492C4.31647e-05 15.8606 6.82477 8.89844 15.2432 8.89844H52.2617V22.2275ZM74.0361 40H60.9707V8.89844H74.0361V40ZM95.7988 40H82.7334V8.89844H95.7988V40ZM145.897 8.89844C153.575 8.89844 159.93 14.692 160.988 22.2275C161.088 22.9517 161.141 23.6939 161.141 24.4492V40H148.075V24.4492C148.075 23.2185 147.099 22.2275 145.897 22.2275H119.767C118.565 22.2277 117.59 23.2186 117.59 24.4492V40H104.524V24.4492C104.524 23.6939 104.577 22.9517 104.677 22.2275C105.735 14.6921 112.089 8.89859 119.767 8.89844H145.897ZM208.521 8.89844C216.94 8.89844 223.765 15.8606 223.765 24.4492V40H210.699V24.4492C210.699 23.2229 209.723 22.2275 208.521 22.2275H182.482C181.346 22.2277 180.332 23.0724 180.223 24.2275C180.101 25.5559 181.116 26.6709 182.392 26.6709H206.345V40H182.691C174.147 39.9998 166.987 32.8647 167.152 24.1475C167.309 15.6966 174.073 8.89844 182.392 8.89844H208.521ZM74.0361 4.44336H60.9707V0H74.0361V4.44336ZM95.7988 4.44336H82.7334V0H95.7988V4.44336Z" fill="#F5F1F2"/>
</svg>
